<svg xmlns="http://www.w3.org/2000/svg" viewBox="0 0 128 128" role="img" aria-label="Sự kiện văn hóa Paris">
  <defs>
    <linearGradient id="eventsBg" x1="0" y1="0" x2="1" y2="1">
      <stop offset="0%" stop-color="#1d4ed8"/>
      <stop offset="55%" stop-color="#0ea5e9"/>
      <stop offset="100%" stop-color="#fb7185"/>
    </linearGradient>
    <linearGradient id="calendarTop" x1="0" y1="0" x2="1" y2="0">
      <stop offset="0%" stop-color="#ff7a59"/>
      <stop offset="100%" stop-color="#ffb347"/>
    </linearGradient>
  </defs>

  <rect x="6" y="6" width="116" height="116" rx="28" fill="url(#eventsBg)"/>
  <circle cx="28" cy="26" r="12" fill="#ffffff" opacity="0.16"/>
  <circle cx="104" cy="32" r="18" fill="#ffffff" opacity="0.12"/>
  <circle cx="94" cy="102" r="14" fill="#ffffff" opacity="0.10"/>

  <rect x="24" y="26" width="80" height="78" rx="18" fill="#fff9f3"/>
  <rect x="24" y="26" width="80" height="22" rx="18" fill="url(#calendarTop)"/>
  <rect x="24" y="39" width="80" height="9" fill="url(#calendarTop)"/>
  <rect x="38" y="18" width="8" height="20" rx="4" fill="#fde68a"/>
  <rect x="82" y="18" width="8" height="20" rx="4" fill="#fde68a"/>

  <circle cx="38" cy="57" r="3" fill="#93c5fd"/>
  <circle cx="48" cy="57" r="3" fill="#fda4af"/>
  <circle cx="58" cy="57" r="3" fill="#93c5fd"/>
  <circle cx="68" cy="57" r="3" fill="#86efac"/>
  <circle cx="78" cy="57" r="3" fill="#fda4af"/>

  <path d="M64 63 50 91h10l4-11 4 11h10L64 63Z" fill="#1e293b"/>
  <path d="M64 54 56 72h6l2-6 2 6h6L64 54Z" fill="#1e293b"/>
  <rect x="61" y="48" width="6" height="8" rx="2" fill="#1e293b"/>
  <rect x="59" y="92" width="10" height="7" rx="3.5" fill="#1e293b"/>
  <circle cx="64" cy="76" r="4" fill="#fff9f3"/>

  <path d="M94 60c3 0 5-2 5-5 0-3-2-5-5-5-3 0-5 2-5 5 0 1 0 2 1 3l-5 4 2 3 4-3c1 1 2 1 3 1Z" fill="#f8fafc"/>
  <path d="m34 72 3 6 7 1-5 5 1 7-6-3-6 3 1-7-5-5 7-1 3-6Z" fill="#fde68a"/>
  <circle cx="89" cy="87" r="4" fill="#22c55e"/>
  <circle cx="98" cy="79" r="3" fill="#fb7185"/>
  <circle cx="36" cy="94" r="4" fill="#38bdf8"/>
</svg>
