<svg xmlns="http://www.w3.org/2000/svg" viewBox="0 0 128 128" role="img" aria-label="Diễn đàn sinh viên và tri thức Việt tại Pháp">
  <defs>
    <linearGradient id="forumBg" x1="0" y1="0" x2="1" y2="1">
      <stop offset="0%" stop-color="#1d4ed8"/>
      <stop offset="58%" stop-color="#0ea5e9"/>
      <stop offset="100%" stop-color="#22c55e"/>
    </linearGradient>
    <linearGradient id="bubbleAccent" x1="0" y1="0" x2="1" y2="0">
      <stop offset="0%" stop-color="#ff7a59"/>
      <stop offset="100%" stop-color="#fbbf24"/>
    </linearGradient>
  </defs>

  <rect x="6" y="6" width="116" height="116" rx="28" fill="url(#forumBg)"/>
  <circle cx="30" cy="28" r="13" fill="#ffffff" opacity="0.15"/>
  <circle cx="101" cy="34" r="17" fill="#ffffff" opacity="0.12"/>
  <circle cx="95" cy="102" r="14" fill="#ffffff" opacity="0.10"/>

  <path d="M30 36h42c8 0 14 6 14 14v19c0 8-6 14-14 14H54l-14 11v-11H30c-8 0-14-6-14-14V50c0-8 6-14 14-14Z" fill="#fff9f3"/>
  <path d="M71 46h23c10 0 18 8 18 18v16c0 10-8 18-18 18H83l-15 12v-12H61c-9 0-16-7-16-16V64c0-10 8-18 18-18h8Z" fill="#eaf4ff"/>
  <circle cx="41" cy="60" r="5" fill="#1d4ed8"/>
  <circle cx="56" cy="60" r="5" fill="#fb7185"/>
  <circle cx="71" cy="60" r="5" fill="#22c55e"/>

  <circle cx="66" cy="87" r="9" fill="url(#bubbleAccent)"/>
  <circle cx="86" cy="82" r="12" fill="#1d4ed8"/>
  <circle cx="103" cy="89" r="8" fill="#22c55e"/>
  <path d="M86 68c-2 0-3-1-3-3v-7c0-2 1-3 3-3s3 1 3 3v7c0 2-1 3-3 3Z" fill="#1e293b"/>
  <path d="M67 75c-1 0-3-1-3-2l-2-6c-1-2 0-4 2-4 2-1 4 0 4 2l2 6c1 2 0 4-2 4h-1Z" fill="#1e293b"/>
  <path d="m101 75 6 4 7-1-3 6 3 6-7-1-6 4 1-7-5-4 7-1 2-6 2 6Z" fill="#fde68a"/>
</svg>
